<svg width="32" height="32" viewBox="0 0 32 32" fill="none" xmlns="http://www.w3.org/2000/svg">
<path d="M15.9068 13.0021H16.1917C16.7182 12.9673 17.2356 12.8479 17.7241 12.6485C19.3431 12.1038 20.7558 11.0751 21.7712 9.70155C22.3684 8.75583 22.773 7.70149 22.9618 6.59905C23.1506 5.49661 23.1199 4.36775 22.8714 3.27721C22.7732 2.78605 22.5866 2.23595 22.1151 2.07878C21.889 2.02492 21.6535 2.02492 21.4274 2.07878C19.279 2.48019 17.3605 3.67616 16.0542 5.42848C14.7889 3.72995 12.9488 2.54981 10.8774 2.10825C10.7164 2.0306 10.5388 1.99373 10.3602 2.00087C10.1816 2.008 10.0075 2.05893 9.85321 2.14917C9.69892 2.23941 9.56919 2.36618 9.47543 2.51835C9.38166 2.67052 9.32675 2.84341 9.31551 3.02179C8.85794 4.76021 8.95757 6.59841 9.60038 8.27718C10.1013 9.53278 10.9371 10.6269 12.0169 11.4402C13.1399 12.3179 14.4887 12.8594 15.9068 13.0021ZM11.0738 4.16128C12.5125 4.52302 13.7551 5.428 14.5409 6.68629C15.3266 7.94457 15.5944 9.4583 15.288 10.9098C13.8519 10.5437 12.6123 9.63781 11.8274 8.38075C11.0424 7.1237 10.7725 5.61233 11.0738 4.16128ZM17.066 7.69762C17.2061 7.35537 17.3771 7.02658 17.5768 6.7153C18.404 5.49624 19.6301 4.60354 21.0443 4.19075C21.2933 5.64503 21.022 7.14051 20.2781 8.41469C19.5712 9.49367 18.539 10.3195 17.3312 10.7723C17.4221 9.73976 17.3323 8.6993 17.066 7.69762Z" fill="black"/>
<path d="M22.6161 17.0689C22.8803 17.2308 23.1025 17.453 23.2645 17.7172C23.3376 17.8626 23.45 17.9848 23.5888 18.0698C23.7277 18.1549 23.8875 18.1995 24.0503 18.1986C24.1904 18.1975 24.3282 18.1638 24.4531 18.1003C24.5583 18.0482 24.652 17.9757 24.7289 17.8869C24.8058 17.7982 24.8642 17.6951 24.9008 17.5835C24.9374 17.4719 24.9514 17.3542 24.942 17.2372C24.9325 17.1201 24.8999 17.0062 24.846 16.9019C24.686 16.6034 24.4805 16.3316 24.2369 16.0964C24.0025 15.8476 23.7267 15.6415 23.4216 15.4874C23.3017 15.4204 23.1661 15.3865 23.0287 15.3891C22.831 15.3921 22.6399 15.4605 22.4852 15.5836C22.3305 15.7068 22.221 15.8777 22.1739 16.0697C22.1267 16.2617 22.1445 16.4639 22.2246 16.6447C22.3046 16.8255 22.4423 16.9747 22.6161 17.0689Z" fill="black"/>
<path d="M26.0738 14.2398C25.3786 13.5186 24.5241 12.9702 23.5787 12.6387C22.2019 12.2074 20.723 12.2295 19.3596 12.7017C17.9962 13.1738 16.8204 14.071 16.0051 15.2614C15.4093 14.3472 14.5939 13.5967 13.6334 13.0787C12.6729 12.5607 11.5979 12.2915 10.5066 12.2958C9.41535 12.3001 8.34255 12.5777 7.38618 13.1033C6.4298 13.6289 5.62034 14.3858 5.03172 15.3047C4.4431 16.2236 4.09407 17.2754 4.01652 18.3639C3.93896 19.4524 4.13535 20.5431 4.58775 21.5362C5.04014 22.5293 5.73412 23.3932 6.60632 24.0491C7.47851 24.7049 8.50113 25.1319 9.58078 25.2909C9.58078 25.2909 9.82635 26.558 9.86564 26.6759C10.0338 27.1775 10.2579 27.6586 10.5336 28.1101C11.0797 29.0182 11.8382 29.78 12.7438 30.3301C13.6965 30.8821 14.7728 31.1855 15.8735 31.2123C16.9742 31.2392 18.0639 30.9886 19.0424 30.4837C20.0208 29.9788 20.8565 29.2359 21.4724 28.3232C22.0884 27.4106 22.4648 26.3577 22.567 25.2614C23.7475 25.066 24.8511 24.5483 25.7559 23.7652C26.6607 22.9822 27.3315 21.9644 27.6943 20.8241C28.0572 19.6839 28.0978 18.4655 27.8118 17.3036C27.5259 16.1417 26.9244 15.0814 26.0738 14.2398ZM14.7084 18.3066C13.5418 18.5634 12.466 19.1301 11.5945 19.9471C10.6349 20.853 9.97081 22.0272 9.68883 23.3164C8.6843 23.1321 7.77023 22.6172 7.09205 21.8536C6.41387 21.09 6.01054 20.1215 5.94621 19.1023C5.88473 17.9209 6.28199 16.7615 7.05503 15.8661C7.82807 14.9706 8.91713 14.4085 10.0948 14.2969C11.2725 14.1854 12.4477 14.533 13.3752 15.2674C14.3026 16.0017 14.9105 17.0659 15.0719 18.2378L14.7084 18.3066ZM16.9481 18.2378C17.0049 17.6393 17.179 17.0578 17.4605 16.5265C17.742 15.9952 18.1254 15.5246 18.5887 15.1415C19.0521 14.7584 19.5864 14.4703 20.1611 14.2937C20.7358 14.1171 21.3397 14.0554 21.9383 14.1121C22.5368 14.1689 23.1184 14.343 23.6496 14.6245C24.1809 14.906 24.6515 15.2893 25.0346 15.7527C25.4177 16.2161 25.7058 16.7504 25.8824 17.3251C26.0591 17.8998 26.1208 18.5037 26.064 19.1023C25.9997 20.1215 25.5963 21.09 24.9182 21.8536C24.24 22.6172 23.3259 23.1321 22.3214 23.3164C22.0394 22.0272 21.3753 20.853 20.4157 19.9471C19.525 19.1191 18.4241 18.5517 17.233 18.3066L16.9481 18.2378ZM20.6711 24.4461C20.7059 25.0696 20.6129 25.6937 20.398 26.2801C20.1831 26.8665 19.8507 27.4028 19.4212 27.8562C18.9917 28.3097 18.4742 28.6706 17.9003 28.9169C17.3264 29.1633 16.7082 29.2898 16.0837 29.2889C15.4809 29.2921 14.8836 29.1747 14.3269 28.9436C13.7702 28.7125 13.2653 28.3723 12.8421 27.9431C12.3845 27.4855 12.0283 26.9369 11.7964 26.3327C11.5646 25.7286 11.4623 25.0825 11.4963 24.4363C11.5692 23.2886 12.0678 22.2094 12.8944 21.41C13.7211 20.6106 14.8164 20.1484 15.9658 20.114H16.0935C16.6963 20.1108 17.2936 20.2282 17.8503 20.4593C18.407 20.6905 18.9119 21.0306 19.3351 21.4598C19.4334 21.558 19.5316 21.6563 19.62 21.7644C20.2362 22.5274 20.5939 23.4665 20.6416 24.4461H20.6711Z" fill="black"/>
<path d="M14.5612 21.283C14.4214 21.2867 14.2841 21.3202 14.1584 21.3812C13.8578 21.5424 13.5829 21.7477 13.3431 21.9902C13.1041 22.2295 12.8991 22.5006 12.7341 22.7958C12.6297 23.0061 12.6113 23.2489 12.6828 23.4726C12.7543 23.6963 12.9101 23.8834 13.1172 23.9942C13.2459 24.0566 13.3867 24.0901 13.5297 24.0924C13.6923 24.0922 13.8517 24.0471 13.9903 23.9622C14.129 23.8773 14.2415 23.7558 14.3156 23.6111C14.4775 23.3468 14.6997 23.1247 14.9639 22.9628C15.0679 22.9108 15.1605 22.8385 15.2363 22.7503C15.3121 22.6621 15.3695 22.5596 15.4052 22.4489C15.4408 22.3382 15.4541 22.2215 15.4441 22.1057C15.4341 21.9898 15.4011 21.8771 15.347 21.7741C15.2762 21.6261 15.1646 21.5013 15.0255 21.4144C14.8863 21.3274 14.7253 21.2818 14.5612 21.283Z" fill="black"/>
<path d="M11.4962 15.114C11.1782 15.0151 10.847 14.9654 10.5139 14.9667C10.1809 14.966 9.84975 15.0157 9.53162 15.114C9.3271 15.1768 9.15229 15.3116 9.03959 15.4935C8.92689 15.6753 8.88397 15.8919 8.91875 16.103C8.95353 16.314 9.06367 16.5053 9.22875 16.6414C9.39383 16.7775 9.60264 16.8491 9.81648 16.8429C9.90431 16.8572 9.99388 16.8572 10.0817 16.8429C10.2323 16.803 10.3876 16.7832 10.5434 16.784C10.6958 16.786 10.8474 16.8058 10.9953 16.8429C11.0863 16.8587 11.1793 16.8587 11.2703 16.8429C11.4227 16.8456 11.5731 16.8083 11.7066 16.7349C11.8401 16.6615 11.9522 16.5545 12.0316 16.4244C12.111 16.2944 12.155 16.1458 12.1594 15.9935C12.1637 15.8412 12.1281 15.6904 12.0562 15.5561C12.0007 15.446 11.9219 15.3494 11.8251 15.2731C11.7284 15.1967 11.6162 15.1424 11.4962 15.114Z" fill="black"/>
</svg>
