<svg width="32" height="32" viewBox="0 0 32 32" fill="none" xmlns="http://www.w3.org/2000/svg">
<g clip-path="url(#clip0_9_899)">
<path d="M31 10H1C0.734784 10 0.48043 10.1054 0.292893 10.2929C0.105357 10.4804 0 10.7348 0 11C0 15.2435 1.68571 19.3131 4.68629 22.3137C7.68687 25.3143 11.7565 27 16 27C20.2435 27 24.3131 25.3143 27.3137 22.3137C30.3143 19.3131 32 15.2435 32 11C32 10.7348 31.8946 10.4804 31.7071 10.2929C31.5196 10.1054 31.2652 10 31 10ZM9.675 18.7388L15 13.4137V20.95C13.0456 20.7547 11.1928 19.9853 9.675 18.7388ZM8.26125 17.325C7.01469 15.8072 6.24529 13.9544 6.05 12H13.5863L8.26125 17.325ZM17 13.4137L22.325 18.7388C20.8072 19.9853 18.9544 20.7547 17 20.95V13.4137ZM23.7388 17.325L18.4137 12H25.95C25.7547 13.9544 24.9853 15.8072 23.7388 17.325ZM16 25C12.4612 24.9958 9.05498 23.6534 6.4648 21.2422C3.87461 18.831 2.29216 15.5294 2.035 12H4.0425C4.29543 14.9973 5.66477 17.7902 7.87931 19.8258C10.0938 21.8613 12.9921 22.9909 16 22.9909C19.0079 22.9909 21.9062 21.8613 24.1207 19.8258C26.3352 17.7902 27.7046 14.9973 27.9575 12H29.965C29.7078 15.5294 28.1254 18.831 25.5352 21.2422C22.945 23.6534 19.5388 24.9958 16 25Z" fill="black"/>
</g>
<defs>
<clipPath id="clip0_9_899">
<rect width="32" height="32" fill="white"/>
</clipPath>
</defs>
</svg>
