<svg width="32" height="33" viewBox="0 0 32 33" fill="none" xmlns="http://www.w3.org/2000/svg">
<g id="Property 1=Default">
<path id="Vector" d="M22.25 4.26855C19.6688 4.26855 17.4088 5.37855 16 7.2548C14.5912 5.37855 12.3313 4.26855 9.75 4.26855C7.69528 4.27087 5.72539 5.08813 4.27248 6.54104C2.81958 7.99394 2.00232 9.96384 2 12.0186C2 20.7686 14.9738 27.8511 15.5262 28.1436C15.6719 28.2219 15.8346 28.2629 16 28.2629C16.1654 28.2629 16.3281 28.2219 16.4737 28.1436C17.0262 27.8511 30 20.7686 30 12.0186C29.9977 9.96384 29.1804 7.99394 27.7275 6.54104C26.2746 5.08813 24.3047 4.27087 22.25 4.26855ZM16 26.1186C13.7175 24.7886 4 18.7298 4 12.0186C4.00198 10.4942 4.60842 9.03279 5.68633 7.95488C6.76423 6.87698 8.22561 6.27054 9.75 6.26855C12.1812 6.26855 14.2225 7.56355 15.075 9.64355C15.1503 9.82697 15.2785 9.98384 15.4432 10.0942C15.6079 10.2046 15.8017 10.2636 16 10.2636C16.1983 10.2636 16.3921 10.2046 16.5568 10.0942C16.7215 9.98384 16.8497 9.82697 16.925 9.64355C17.7775 7.5598 19.8188 6.26855 22.25 6.26855C23.7744 6.27054 25.2358 6.87698 26.3137 7.95488C27.3916 9.03279 27.998 10.4942 28 12.0186C28 18.7198 18.28 24.7873 16 26.1186Z" fill="black"/>
</g>
</svg>
