<svg width="40" height="40" viewBox="0 0 40 40" fill="none" xmlns="http://www.w3.org/2000/svg">
<rect width="40" height="40" rx="8" fill="white"/>
<path opacity="0.2" d="M29.75 16.8125C29.75 23 20 28.25 20 28.25C20 28.25 10.25 23 10.25 16.8125C10.25 15.4698 10.7834 14.1822 11.7328 13.2328C12.6822 12.2834 13.9698 11.75 15.3125 11.75C17.4303 11.75 19.2444 12.9041 20 14.75C20.7556 12.9041 22.5697 11.75 24.6875 11.75C26.0302 11.75 27.3178 12.2834 28.2672 13.2328C29.2166 14.1822 29.75 15.4698 29.75 16.8125Z" fill="#377E81"/>
<path d="M24.6875 11C22.7516 11 21.0566 11.8325 20 13.2397C18.9434 11.8325 17.2484 11 15.3125 11C13.7715 11.0017 12.294 11.6147 11.2044 12.7044C10.1147 13.794 9.50174 15.2715 9.5 16.8125C9.5 23.375 19.2303 28.6869 19.6447 28.9062C19.7539 28.965 19.876 28.9958 20 28.9958C20.124 28.9958 20.2461 28.965 20.3553 28.9062C20.7697 28.6869 30.5 23.375 30.5 16.8125C30.4983 15.2715 29.8853 13.794 28.7956 12.7044C27.706 11.6147 26.2285 11.0017 24.6875 11ZM20 27.3875C18.2881 26.39 11 21.8459 11 16.8125C11.0015 15.6692 11.4563 14.5732 12.2647 13.7647C13.0732 12.9563 14.1692 12.5015 15.3125 12.5C17.1359 12.5 18.6669 13.4713 19.3062 15.0312C19.3628 15.1688 19.4589 15.2865 19.5824 15.3693C19.7059 15.4521 19.8513 15.4963 20 15.4963C20.1487 15.4963 20.2941 15.4521 20.4176 15.3693C20.5411 15.2865 20.6372 15.1688 20.6937 15.0312C21.3331 13.4684 22.8641 12.5 24.6875 12.5C25.8308 12.5015 26.9268 12.9563 27.7353 13.7647C28.5437 14.5732 28.9985 15.6692 29 16.8125C29 21.8384 21.71 26.3891 20 27.3875Z" fill="black"/>
</svg>
