<svg width="32" height="32" viewBox="0 0 32 32" fill="none" xmlns="http://www.w3.org/2000/svg">
<path opacity="0.2" d="M29 11.75C29 20 16 27 16 27C16 27 3.00003 20 3.00003 11.75C3.00003 9.95979 3.71119 8.2429 4.97706 6.97703C6.24293 5.71116 7.95982 5 9.75003 5C12.5738 5 14.9925 6.53875 16 9C17.0075 6.53875 19.4263 5 22.25 5C24.0402 5 25.7571 5.71116 27.023 6.97703C28.2889 8.2429 29 9.95979 29 11.75Z" fill="#377E81"/>
<path d="M22.25 4C19.6688 4 17.4088 5.11 16 6.98625C14.5913 5.11 12.3313 4 9.75003 4C7.69531 4.00232 5.72542 4.81958 4.27251 6.27248C2.81961 7.72539 2.00235 9.69528 2.00003 11.75C2.00003 20.5 14.9738 27.5825 15.5263 27.875C15.6719 27.9533 15.8347 27.9943 16 27.9943C16.1654 27.9943 16.3282 27.9533 16.4738 27.875C17.0263 27.5825 30 20.5 30 11.75C29.9977 9.69528 29.1805 7.72539 27.7276 6.27248C26.2746 4.81958 24.3047 4.00232 22.25 4ZM16 25.85C13.7175 24.52 4.00003 18.4613 4.00003 11.75C4.00201 10.2256 4.60845 8.76423 5.68636 7.68633C6.76426 6.60842 8.22565 6.00198 9.75003 6C12.1813 6 14.2225 7.295 15.075 9.375C15.1504 9.55841 15.2785 9.71528 15.4432 9.82569C15.6079 9.93609 15.8017 9.99503 16 9.99503C16.1983 9.99503 16.3921 9.93609 16.5568 9.82569C16.7215 9.71528 16.8497 9.55841 16.925 9.375C17.7775 7.29125 19.8188 6 22.25 6C23.7744 6.00198 25.2358 6.60842 26.3137 7.68633C27.3916 8.76423 27.998 10.2256 28 11.75C28 18.4513 18.28 24.5188 16 25.85Z" fill="black"/>
</svg>
