<svg width="24" height="24" viewBox="0 0 24 24" fill="none" xmlns="http://www.w3.org/2000/svg">
<path d="M20.658 9.88981L13.158 17.3898C13.0535 17.4947 12.9293 17.5779 12.7926 17.6347C12.6558 17.6915 12.5092 17.7207 12.3611 17.7207C12.2131 17.7207 12.0665 17.6915 11.9297 17.6347C11.793 17.5779 11.6688 17.4947 11.5643 17.3898L4.06427 9.88981C3.85292 9.67846 3.73419 9.39182 3.73419 9.09293C3.73419 8.79404 3.85292 8.5074 4.06427 8.29606C4.27561 8.08471 4.56226 7.96598 4.86114 7.96598C5.16003 7.96598 5.44667 8.08471 5.65802 8.29606L12.3621 15.0001L19.0661 8.29512C19.2775 8.08377 19.5641 7.96504 19.863 7.96504C20.1619 7.96504 20.4485 8.08377 20.6599 8.29512C20.8712 8.50646 20.99 8.79311 20.99 9.09199C20.99 9.39088 20.8712 9.67752 20.6599 9.88887L20.658 9.88981Z" fill="black"/>
</svg>
